<svg width="33" height="32" viewBox="0 0 33 32" fill="none" xmlns="http://www.w3.org/2000/svg">
<g clip-path="url(#clip0_1455_600)">
<path d="M16.5 2.88368C20.7747 2.88368 21.2765 2.90274 22.9661 2.97896C24.5286 3.04883 25.3734 3.30925 25.9387 3.53156C26.6882 3.82374 27.2217 4.16673 27.7807 4.72569C28.3396 5.28464 28.689 5.81818 28.9748 6.56769C29.1908 7.13299 29.4575 7.97777 29.5274 9.54029C29.6036 11.2299 29.6227 11.7316 29.6227 16.0064C29.6227 20.2811 29.6036 20.7829 29.5274 22.4724C29.4575 24.0349 29.1971 24.8797 28.9748 25.445C28.6826 26.1945 28.3396 26.7281 27.7807 27.287C27.2217 27.846 26.6882 28.1953 25.9387 28.4811C25.3734 28.6971 24.5286 28.9639 22.9661 29.0337C21.2765 29.11 20.7747 29.129 16.5 29.129C12.2253 29.129 11.7235 29.11 10.0339 29.0337C8.47142 28.9639 7.62664 28.7035 7.06134 28.4811C6.31183 28.189 5.77829 27.846 5.21934 27.287C4.66038 26.7281 4.31104 26.1945 4.02521 25.445C3.80925 24.8797 3.54248 24.0349 3.47261 22.4724C3.39639 20.7829 3.37733 20.2811 3.37733 16.0064C3.37733 11.7316 3.39639 11.2299 3.47261 9.54029C3.54248 7.97777 3.8029 7.13299 4.02521 6.56769C4.31739 5.81818 4.66038 5.28464 5.21934 4.72569C5.77829 4.16673 6.31183 3.81739 7.06134 3.53156C7.62664 3.3156 8.47142 3.04883 10.0339 2.97896C11.7235 2.89639 12.2316 2.88368 16.5 2.88368ZM16.5 0C12.1554 0 11.6092 0.0190552 9.90056 0.0952759C8.1983 0.171497 7.03593 0.444621 6.01965 0.838428C4.96527 1.24494 4.07602 1.79754 3.18678 2.68678C2.29754 3.57602 1.75129 4.47162 1.33843 5.51965C0.944621 6.53593 0.671497 7.69829 0.595276 9.40691C0.519055 11.1092 0.5 11.6554 0.5 16C0.5 20.3446 0.519055 20.8908 0.595276 22.5994C0.671497 24.3017 0.944621 25.4641 1.33843 26.4867C1.74494 27.5411 2.29754 28.4303 3.18678 29.3196C4.07602 30.2088 4.97162 30.7551 6.01965 31.1679C7.03593 31.5617 8.1983 31.8349 9.90691 31.9111C11.6155 31.9873 12.1554 32.0064 16.5064 32.0064C20.8573 32.0064 21.3972 31.9873 23.1058 31.9111C24.8081 31.8349 25.9704 31.5617 26.9931 31.1679C28.0475 30.7614 28.9367 30.2088 29.8259 29.3196C30.7152 28.4303 31.2614 27.5347 31.6743 26.4867C32.0681 25.4704 32.3412 24.3081 32.4174 22.5994C32.4937 20.8908 32.5127 20.3509 32.5127 16C32.5127 11.6491 32.4937 11.1092 32.4174 9.40056C32.3412 7.69829 32.0681 6.53593 31.6743 5.5133C31.2678 4.45891 30.7152 3.56967 29.8259 2.68043C28.9367 1.79119 28.0411 1.24494 26.9931 0.832076C25.9768 0.438269 24.8144 0.165145 23.1058 0.0889242C21.3908 0.0190552 20.8446 0 16.5 0Z" fill="#E3E7D9"/>
<path d="M16.5004 7.78723C11.9653 7.78723 8.28125 11.4649 8.28125 16.0064C8.28125 20.5478 11.9589 24.2255 16.5004 24.2255C21.0419 24.2255 24.7195 20.5478 24.7195 16.0064C24.7195 11.4649 21.0419 7.78723 16.5004 7.78723ZM16.5004 21.3355C13.5532 21.3355 11.1649 18.9472 11.1649 16C11.1649 13.0528 13.5532 10.6646 16.5004 10.6646C19.4476 10.6646 21.8358 13.0528 21.8358 16C21.8358 18.9472 19.4476 21.3355 16.5004 21.3355Z" fill="#E3E7D9"/>
<path d="M25.0432 9.37514C26.1026 9.37514 26.9614 8.51632 26.9614 7.45692C26.9614 6.39751 26.1026 5.5387 25.0432 5.5387C23.9838 5.5387 23.125 6.39751 23.125 7.45692C23.125 8.51632 23.9838 9.37514 25.0432 9.37514Z" fill="#E3E7D9"/>
</g>
<defs>
<clipPath id="clip0_1455_600">
<rect width="32" height="32" fill="white" transform="translate(0.5)"/>
</clipPath>
</defs>
</svg>
