<svg width="24" height="24" viewBox="0 0 24 24" fill="none" xmlns="http://www.w3.org/2000/svg">
<g clip-path="url(#clip0_297_6861)">
<path d="M12 0C5.37242 0 0 5.37242 0 12C0 18.6276 5.37242 24 12 24C18.6276 24 24 18.6276 24 12C24 5.37242 18.6276 0 12 0ZM12 2.25C17.8953 2.25 21.75 6.10476 21.75 12C21.75 17.8953 17.8953 21.75 12 21.75C6.10476 21.75 2.25 17.8953 2.25 12C2.25 6.10474 6.10474 2.25 12 2.25Z" fill="#E3E7D9"/>
<path d="M17.0003 3.99561L8.67871 6.2458H8.66907V9.63065H8.67871V15.6828C8.31465 15.4637 7.86832 15.3337 7.3888 15.3337C6.15355 15.3337 5.1582 16.1915 5.1582 17.2443C5.1582 18.2974 6.15383 19.1453 7.3888 19.1453C8.62377 19.1453 9.67341 18.2965 9.62936 17.2443L9.60669 16.7043L9.55176 9.38795L16.1275 7.61294V14.2955C15.7436 14.0308 15.2535 13.8688 14.7212 13.8688C13.486 13.8688 12.4903 14.7266 12.4903 15.7794C12.4903 16.8325 13.486 17.6804 14.7212 17.6804C15.9565 17.6804 16.9947 16.8325 16.9947 15.7794C16.9947 15.7695 16.995 15.7602 16.9947 15.7502L17.0006 7.37989V3.99561H17.0003Z" fill="#E3E7D9"/>
</g>
<defs>
<clipPath id="clip0_297_6861">
<rect width="24" height="24" fill="white"/>
</clipPath>
</defs>
</svg>
