<svg width="24" height="24" viewBox="0 0 24 24" fill="none" xmlns="http://www.w3.org/2000/svg">
<rect width="24" height="24" rx="12" fill="#E3E7D9"/>
<path d="M3.32327 15.1426H3.44319L3.56311 13.4123L3.44319 11.682C3.44911 11.6639 3.45067 11.6448 3.44776 11.626C3.44484 11.6072 3.43752 11.5894 3.4264 11.574C3.41529 11.5586 3.40069 11.5461 3.3838 11.5375C3.36692 11.5288 3.34823 11.5243 3.32927 11.5243C3.31031 11.5243 3.29162 11.5288 3.27474 11.5375C3.25785 11.5461 3.24325 11.5586 3.23213 11.574C3.22101 11.5894 3.2137 11.6072 3.21078 11.626C3.20786 11.6448 3.20943 11.6639 3.21535 11.682L3.08344 13.4123L3.20335 15.1426H3.32327ZM2.63974 14.5659V14.4817L2.86758 13.4484L2.63974 12.2468H2.51982L2.3999 13.4484L2.51982 14.4817C2.51982 14.5659 2.51982 14.5659 2.63974 14.5659ZM4.12672 11.3455C4.12672 11.2254 4.12672 11.2254 4.0068 11.2254V11.3455L3.77896 13.4123L4.0068 15.3709V15.4911C4.12672 15.4911 4.12672 15.4911 4.12672 15.3709L4.35457 13.4123L4.12672 11.3455ZM4.82225 15.5992C4.83846 15.6012 4.8549 15.5994 4.87033 15.594C4.88575 15.5887 4.89977 15.5799 4.91131 15.5683C4.92285 15.5568 4.93163 15.5427 4.93698 15.5273C4.94232 15.5118 4.94409 15.4953 4.94217 15.4791L5.17001 13.4123L4.94217 11.2254C4.94409 11.2091 4.94232 11.1927 4.93698 11.1772C4.93163 11.1618 4.92285 11.1477 4.91131 11.1361C4.89977 11.1246 4.88575 11.1158 4.87033 11.1104C4.8549 11.1051 4.83846 11.1033 4.82225 11.1052L4.70233 11.2254L4.58241 13.4123L4.70233 15.4791L4.82225 15.5992ZM5.6257 15.5992C5.64191 15.6012 5.65835 15.5994 5.67378 15.594C5.6892 15.5887 5.70322 15.5799 5.71476 15.5683C5.72631 15.5568 5.73508 15.5427 5.74043 15.5273C5.74577 15.5118 5.74755 15.4953 5.74562 15.4791L5.97346 13.4123L5.74562 11.4537C5.74755 11.4374 5.74577 11.421 5.74043 11.4055C5.73508 11.3901 5.72631 11.376 5.71476 11.3644C5.70322 11.3529 5.6892 11.3441 5.67378 11.3387C5.65835 11.3334 5.64191 11.3316 5.6257 11.3335C5.50578 11.3335 5.50578 11.3335 5.50578 11.4537L5.27794 13.4123L5.4818 15.4911C5.4818 15.5992 5.4818 15.5992 5.6257 15.5992ZM6.68098 13.4123L6.56106 10.192C6.56299 10.1758 6.56121 10.1593 6.55587 10.1438C6.55052 10.1284 6.54175 10.1143 6.5302 10.1028C6.51866 10.0912 6.50465 10.0824 6.48922 10.077C6.47379 10.0717 6.45735 10.0699 6.44114 10.0718C6.32122 10.0718 6.2133 10.0718 6.2133 10.192L6.09338 13.4123L6.2133 15.4791C6.2133 15.5992 6.33322 15.5992 6.44114 15.5992C6.45735 15.6012 6.47379 15.5994 6.48922 15.594C6.50465 15.5887 6.51866 15.5799 6.5302 15.5683C6.54175 15.5568 6.55052 15.5427 6.55587 15.5273C6.56121 15.5118 6.56299 15.4953 6.56106 15.4791L6.68098 13.4123ZM7.11268 15.5992C7.2326 15.5992 7.34053 15.5992 7.34053 15.4791L7.46044 13.4123L7.34053 9.38692C7.28007 9.32254 7.19987 9.28025 7.11268 9.26676L6.99276 9.38692L6.87285 13.4123L6.99276 15.4791C6.99084 15.4953 6.99261 15.5118 6.99796 15.5273C7.0033 15.5427 7.01208 15.5568 7.02362 15.5683C7.03516 15.5799 7.04918 15.5887 7.06461 15.594C7.08003 15.5994 7.09647 15.6012 7.11268 15.5992ZM7.88016 8.93031C7.76024 8.93031 7.76024 9.05047 7.76024 9.15862L7.64032 13.4123L7.76024 15.4791C7.76024 15.5992 7.76024 15.5992 7.88016 15.5992C8.00008 15.5992 8.108 15.5992 8.108 15.4791L8.22792 13.4123L8.108 9.15862C8.10264 9.09988 8.07691 9.04488 8.03529 9.00317C7.99367 8.96147 7.93878 8.93569 7.88016 8.93031ZM8.73158 15.5992C8.85149 15.5992 8.95942 15.5992 8.95942 15.4791L9.07934 13.4123L8.95942 8.9183C8.95942 8.79814 8.8395 8.79814 8.73158 8.79814C8.62365 8.79814 8.50373 8.79814 8.50373 8.9183L8.38381 13.4123L8.50373 15.4791C8.49174 15.5992 8.61166 15.5992 8.73158 15.5992ZM9.53503 15.5992C9.59365 15.5939 9.64854 15.5681 9.69016 15.5264C9.73178 15.4847 9.75751 15.4297 9.76287 15.3709L9.88279 13.4123L9.76287 9.03846C9.76287 8.97791 9.73887 8.91984 9.69614 8.87702C9.65341 8.83421 9.59546 8.81015 9.53503 8.81015C9.4746 8.81015 9.41665 8.83421 9.37392 8.87702C9.33119 8.91984 9.30718 8.97791 9.30718 9.03846L9.18727 13.4123L9.30718 15.3709C9.31254 15.4297 9.33827 15.4847 9.3799 15.5264C9.42152 15.5681 9.47641 15.5939 9.53503 15.5992ZM10.6742 13.4123L10.5543 9.26676C10.5543 9.23678 10.5484 9.20709 10.537 9.17939C10.5255 9.1517 10.5088 9.12653 10.4876 9.10533C10.4664 9.08413 10.4413 9.06731 10.4137 9.05584C10.386 9.04436 10.3564 9.03846 10.3265 9.03846C10.2966 9.03846 10.2669 9.04436 10.2393 9.05584C10.2117 9.06731 10.1865 9.08413 10.1654 9.10533C10.1442 9.12653 10.1274 9.1517 10.116 9.17939C10.1045 9.20709 10.0986 9.23678 10.0986 9.26676L9.97872 13.4123L10.0986 15.3709C10.0986 15.4009 10.1045 15.4306 10.116 15.4583C10.1274 15.486 10.1442 15.5112 10.1654 15.5324C10.1865 15.5536 10.2117 15.5704 10.2393 15.5819C10.2669 15.5933 10.2966 15.5992 10.3265 15.5992C10.3564 15.5992 10.386 15.5933 10.4137 15.5819C10.4413 15.5704 10.4664 15.5536 10.4876 15.5324C10.5088 15.5112 10.5255 15.486 10.537 15.4583C10.5484 15.4306 10.5543 15.4009 10.5543 15.3709L10.6742 13.4123ZM11.1419 15.5992C11.2006 15.5939 11.2554 15.5681 11.2971 15.5264C11.3387 15.4847 11.3644 15.4297 11.3698 15.3709L11.4897 13.4123L11.3698 8.4737C11.3698 8.41315 11.3458 8.35508 11.303 8.31227C11.2603 8.26945 11.2024 8.2454 11.1419 8.2454C11.0815 8.2454 11.0235 8.26945 10.9808 8.31227C10.9381 8.35508 10.9141 8.41315 10.9141 8.4737L10.7942 13.4243L10.9141 15.3829C10.922 15.4395 10.9489 15.4917 10.9903 15.531C11.0317 15.5703 11.0851 15.5944 11.1419 15.5992ZM11.9454 7.77677C11.8868 7.78214 11.8319 7.80792 11.7902 7.84963C11.7486 7.89134 11.7229 7.94634 11.7175 8.00507L11.5976 13.4123L11.7175 15.3709C11.7175 15.4315 11.7415 15.4896 11.7843 15.5324C11.827 15.5752 11.885 15.5992 11.9454 15.5992C12.0058 15.5992 12.0638 15.5752 12.1065 15.5324C12.1492 15.4896 12.1732 15.4315 12.1732 15.3709L12.2931 13.4123L12.1732 8.00507C12.1679 7.94634 12.1421 7.89134 12.1005 7.84963C12.0589 7.80792 12.004 7.78214 11.9454 7.77677ZM12.7488 15.5992H19.2964C19.5997 15.5992 19.9001 15.5392 20.1802 15.4225C20.4604 15.3058 20.7147 15.1348 20.9287 14.9193C21.1426 14.7038 21.312 14.448 21.427 14.1667C21.542 13.8854 21.6004 13.5841 21.5988 13.2801C21.6084 12.97 21.5561 12.6611 21.445 12.3715C21.3339 12.0819 21.1662 11.8174 20.9517 11.5936C20.7373 11.3697 20.4804 11.191 20.1962 11.068C19.9119 10.9449 19.606 10.88 19.2964 10.8769C18.9836 10.8518 18.669 10.8927 18.373 10.9971C18.2673 9.96622 17.7877 9.0101 17.025 8.31017C16.2624 7.61023 15.2699 7.21518 14.2358 7.2C13.693 7.21131 13.1535 7.28796 12.6289 7.4283C12.509 7.54846 12.4011 7.54846 12.4011 7.77677V15.3709C12.4011 15.4911 12.521 15.5992 12.7488 15.5992Z" fill="#1E1E1E"/>
</svg>
