<svg width="24" height="24" viewBox="0 0 24 24" fill="none" xmlns="http://www.w3.org/2000/svg">
<path d="M11.9999 0C5.37269 0 0 5.37255 0 11.9998C0 18.6273 5.37269 23.9994 11.9999 23.9994C18.6279 23.9994 24 18.6273 24 11.9998C24 5.37298 18.628 0 11.9999 0ZM17.503 17.3071C17.2881 17.6596 16.8267 17.7714 16.4742 17.555C13.6567 15.8341 10.1099 15.4443 5.93283 16.3986C5.53032 16.4904 5.12909 16.2382 5.03738 15.8355C4.94524 15.4328 5.19644 15.0316 5.59996 14.9399C10.1711 13.8951 14.092 14.3452 17.2551 16.2783C17.6076 16.4947 17.7194 16.9546 17.503 17.3071ZM18.9718 14.0393C18.701 14.4799 18.1249 14.6189 17.685 14.3481C14.4594 12.365 9.54257 11.7909 5.72735 12.949C5.23255 13.0984 4.70995 12.8196 4.55978 12.3256C4.41075 11.8308 4.68975 11.3092 5.18369 11.1588C9.54171 9.83647 14.9595 10.477 18.6637 12.7532C19.1036 13.0241 19.2426 13.6 18.9718 14.0393ZM19.0979 10.6369C15.2304 8.33975 8.84945 8.12854 5.15689 9.24924C4.56394 9.42908 3.93688 9.09434 3.75719 8.50139C3.5775 7.90815 3.91195 7.28152 4.50533 7.10126C8.74413 5.81447 15.7906 6.06309 20.2434 8.70644C20.7779 9.02298 20.9527 9.7118 20.636 10.2444C20.3208 10.7778 19.6295 10.9536 19.0979 10.6369Z" fill="#E3E7D9"/>
</svg>
