<svg width="24" height="24" viewBox="0 0 24 24" fill="none" xmlns="http://www.w3.org/2000/svg">
<rect width="24" height="24" rx="12" fill="#E3E7D9"/>
<path d="M12 6.52696C15.0183 6.52696 17.473 8.98174 17.473 12C17.473 15.0183 15.0183 17.473 12 17.473C8.98174 17.473 6.52696 15.0183 6.52696 12C6.52696 8.98174 8.98174 6.52696 12 6.52696ZM12 6C8.68565 6 6 8.68565 6 12C6 15.3143 8.68565 18 12 18C15.3143 18 18 15.3143 18 12C18 8.68565 15.3143 6 12 6Z" fill="#1E1E1E"/>
<path d="M10.2656 15.4219L15.4219 11.8512L10.2656 8.57812V15.4219Z" fill="#1E1E1E"/>
</svg>
