<svg width="54" height="54" viewBox="0 0 54 54" fill="none" xmlns="http://www.w3.org/2000/svg">
<mask id="mask0_141_6437" style="mask-type:alpha" maskUnits="userSpaceOnUse" x="0" y="0" width="54" height="54">
<rect width="54" height="54" fill="#D9D9D9"/>
</mask>
<g mask="url(#mask0_141_6437)">
<path d="M27 29.25C24.7875 29.25 22.9219 28.4907 21.4031 26.9719C19.8844 25.4531 19.125 23.5875 19.125 21.375C19.125 19.1625 19.8844 17.2969 21.4031 15.7781C22.9219 14.2594 24.7875 13.5 27 13.5C29.2125 13.5 31.0781 14.2594 32.5969 15.7781C34.1156 17.2969 34.875 19.1625 34.875 21.375C34.875 23.5875 34.1156 25.4531 32.5969 26.9719C31.0781 28.4907 29.2125 29.25 27 29.25ZM27 24.75C27.975 24.75 28.7812 24.4313 29.4187 23.7938C30.0562 23.1563 30.375 22.35 30.375 21.375C30.375 20.4 30.0562 19.5938 29.4187 18.9563C28.7812 18.3188 27.975 18 27 18C26.025 18 25.2188 18.3188 24.5813 18.9563C23.9438 19.5938 23.625 20.4 23.625 21.375C23.625 22.35 23.9438 23.1563 24.5813 23.7938C25.2188 24.4313 26.025 24.75 27 24.75ZM27 9.28127L13.5 14.3438V24.975C13.5 27 13.7812 28.9688 14.3438 30.8813C14.9062 32.7938 15.675 34.5938 16.65 36.2813C18.225 35.4938 19.875 34.875 21.6 34.425C23.325 33.975 25.125 33.75 27 33.75C28.875 33.75 30.675 33.975 32.4 34.425C34.125 34.875 35.775 35.4938 37.35 36.2813C38.325 34.5938 39.0938 32.7938 39.6562 30.8813C40.2188 28.9688 40.5 27 40.5 24.975V14.3438L27 9.28127ZM27 38.25C25.65 38.25 24.3375 38.4 23.0625 38.7C21.7875 39 20.5688 39.4125 19.4062 39.9375C20.4937 41.0625 21.675 42.0375 22.95 42.8625C24.225 43.6875 25.575 44.325 27 44.775C28.425 44.325 29.775 43.6875 31.05 42.8625C32.325 42.0375 33.5063 41.0625 34.5938 39.9375C33.4312 39.4125 32.2125 39 30.9375 38.7C29.6625 38.4 28.35 38.25 27 38.25ZM27 49.275C26.7375 49.275 26.4937 49.2563 26.2688 49.2188C26.0438 49.1813 25.8188 49.125 25.5938 49.05C20.5312 47.3625 16.5 44.2407 13.5 39.6844C10.5 35.1281 9 30.225 9 24.975V14.3438C9 13.4063 9.27188 12.5625 9.81563 11.8125C10.3594 11.0625 11.0625 10.5188 11.925 10.1813L25.425 5.11877C25.95 4.93127 26.475 4.83752 27 4.83752C27.525 4.83752 28.05 4.93127 28.575 5.11877L42.075 10.1813C42.9375 10.5188 43.6406 11.0625 44.1844 11.8125C44.7281 12.5625 45 13.4063 45 14.3438V24.975C45 30.225 43.5 35.1281 40.5 39.6844C37.5 44.2407 33.4688 47.3625 28.4062 49.05C28.1812 49.125 27.9562 49.1813 27.7312 49.2188C27.5063 49.2563 27.2625 49.275 27 49.275Z" fill="#E3E7D9"/>
</g>
</svg>
